<svg version="1.1" xmlns="http://www.w3.org/2000/svg" xmlns:xlink="http://www.w3.org/1999/xlink" x="0px"
	 y="0px" width="256px" height="256px" xml:space="preserve" display="none">
<defs>
<symbol id="svgCart" viewBox="0 0 256 256">
<path d="M246.032,17.551c-2.799-3.238-6.817-5.014-11.051-5.014h-9.991H21.815c-4.233,0-8.252,1.776-11.051,5.014
	c-2.801,3.23-4.091,7.456-3.445,11.695L21.96,132.16l7.405,44.428c0.144,0.628,0.439,1.219,0.637,1.793
	c0.296,0.79,0.449,1.507,0.79,2.225c0.521,1.007,1.157,1.794,1.802,2.655c0.422,0.575,0.862,1.148,1.364,1.634
	c0.861,0.789,1.875,1.381,2.862,1.955c0.592,0.269,1.013,0.719,1.651,0.933c1.731,0.645,3.534,1.075,5.392,1.075h161.693
	c8.109,0,14.713-6.529,14.713-14.729c0-8.093-6.604-14.623-14.713-14.623H56.35l-2.44-14.712h166.356
	c7.321,0,13.492-5.383,14.57-12.633l14.641-102.914C250.122,25.007,248.833,20.782,246.032,17.551z M41.709,71.728l-4.961-29.855
	h51.26v29.434H43.863C43.064,71.307,42.427,71.53,41.709,71.728z M88.009,115.371H48.968l-4.889-29.344h43.931V115.371z
	 M146.777,115.371h-44.146V86.027h44.146V115.371z M146.777,71.307h-44.146V41.873h44.146V71.307z M207.492,115.372h-46.004V86.028
	h50.238L207.492,115.372z M213.808,71.307h-52.319V41.873h56.482L213.808,71.307z"/>
<path d="M88.008,225.607c0,12.2-9.922,22.015-22.122,22.015c-12.128,0-22.023-9.814-22.023-22.015
	c0-12.129,9.895-22.032,22.023-22.032C78.087,203.573,88.008,213.477,88.008,225.607L88.008,225.607z"/>
<path d="M220.269,225.607c0,12.2-9.904,22.015-22.032,22.015c-12.201,0-22.105-9.814-22.105-22.015
	c0-12.129,9.904-22.032,22.105-22.032C210.364,203.573,220.269,213.477,220.269,225.607L220.269,225.607z"/>
</symbol>
</defs>
</svg>